<?xml version="1.0" encoding="utf-8"?>
<!-- Generator: Adobe Illustrator 17.0.0, SVG Export Plug-In . SVG Version: 6.00 Build 0)  -->
<!DOCTYPE svg PUBLIC "-//W3C//DTD SVG 1.1//EN" "http://www.w3.org/Graphics/SVG/1.1/DTD/svg11.dtd">
<svg version="1.1" id="Capa_1" xmlns="http://www.w3.org/2000/svg" xmlns:xlink="http://www.w3.org/1999/xlink" x="0px" y="0px" width="104.468px" height="100px" viewBox="0 0 104.468 100" enable-background="new 0 0 104.468 100" xml:space="preserve">
<g>
	<rect x="39.468" y="41" opacity="0.7" fill="#0A0830" width="6" height="6"/>
	<rect x="39.462" y="34.994" fill="#00a5ff" width="5.964" height="5.964"/>
	<rect x="39.462" y="46.922" fill="#00a5ff" width="5.964" height="5.964"/>
	<rect x="39.468" y="53" opacity="0.7" fill="#0A0830" width="6" height="6"/>
	<rect x="39.462" y="88.072" fill="#00a5ff" width="5.964" height="5.964"/>
	<rect x="39.462" y="94.036" fill="#00a5ff" width="5.964" height="5.964"/>
	<rect x="39.462" y="82.108" fill="#00a5ff" width="5.964" height="5.964"/>
	<rect x="39.462" y="70.181" fill="#00a5ff" width="5.964" height="5.964"/>
	<rect x="39.462" y="58.85" fill="#00a5ff" width="5.964" height="5.367"/>
	<rect x="33.498" y="82.108" fill="#00a5ff" width="5.964" height="5.964"/>
	<rect x="33.498" y="58.85" fill="#00a5ff" width="5.964" height="5.367"/>
	<rect x="33.498" y="40.958" fill="#00a5ff" width="5.964" height="5.964"/>
	<rect x="33.498" y="52.886" fill="#00a5ff" width="5.964" height="5.964"/>
	<rect x="33.498" y="46.922" fill="#00a5ff" width="5.964" height="5.964"/>
	<rect x="33.498" y="70.181" fill="#00a5ff" width="5.964" height="5.964"/>
	<rect x="33.498" y="88.072" fill="#00a5ff" width="5.964" height="5.964"/>
	<rect x="33.498" y="94.036" fill="#00a5ff" width="5.964" height="5.964"/>
	<rect x="45.426" y="58.85" fill="#00a5ff" width="5.964" height="5.367"/>
	<rect x="45.426" y="52.886" fill="#00a5ff" width="5.964" height="5.964"/>
	<rect x="45.426" y="70.181" fill="#00a5ff" width="5.964" height="5.964"/>
	<rect x="45.468" y="47" opacity="0.7" fill="#0A0830" width="6" height="6"/>
	<rect x="45.426" y="23.066" fill="#00a5ff" width="5.964" height="5.964"/>
	<rect x="45.426" y="34.994" fill="#00a5ff" width="5.964" height="5.964"/>
	<rect x="45.426" y="40.958" fill="#00a5ff" width="5.964" height="5.964"/>
	<rect x="45.426" y="88.072" fill="#00a5ff" width="5.964" height="5.964"/>
	<rect x="45.426" y="82.108" fill="#00a5ff" width="5.964" height="5.964"/>
	<rect x="45.426" y="94.036" fill="#00a5ff" width="5.964" height="5.964"/>
	<rect x="21.571" y="94.036" fill="#00a5ff" width="5.964" height="5.964"/>
	<rect x="21.571" y="64.217" fill="#00a5ff" width="5.964" height="5.964"/>
	<rect x="21.571" y="58.85" fill="#00a5ff" width="5.964" height="5.367"/>
	<rect x="21.571" y="46.922" fill="#00a5ff" width="5.964" height="5.964"/>
	<rect x="21.571" y="52.886" fill="#00a5ff" width="5.964" height="5.964"/>
	<rect x="27.535" y="94.036" fill="#00a5ff" width="5.964" height="5.964"/>
	<rect x="27.535" y="88.072" fill="#00a5ff" width="5.964" height="5.964"/>
	<rect x="27.535" y="70.181" fill="#00a5ff" width="5.964" height="5.964"/>
	<rect x="68.468" y="53" opacity="0.7" fill="#0A0830" width="6" height="6"/>
	<rect x="68.685" y="23.066" fill="#00a5ff" width="5.964" height="5.964"/>
	<rect x="68.685" y="70.181" fill="#00a5ff" width="5.964" height="5.964"/>
	<rect x="68.468" y="41" opacity="0.7" fill="#0A0830" width="6" height="6"/>
	<rect x="68.685" y="34.994" fill="#00a5ff" width="5.964" height="5.964"/>
	<rect x="68.685" y="46.922" fill="#00a5ff" width="5.964" height="5.964"/>
	<rect x="68.685" y="76.145" fill="#00a5ff" width="5.964" height="5.964"/>
	<rect x="68.685" y="58.85" fill="#00a5ff" width="5.964" height="5.367"/>
	<rect x="68.685" y="82.108" fill="#00a5ff" width="5.964" height="5.964"/>
	<rect x="68.468" y="88" opacity="0.7" fill="#0A0830" width="6" height="6"/>
	<rect x="68.685" y="94.036" fill="#00a5ff" width="5.964" height="5.964"/>
	<rect x="62.721" y="34.994" fill="#00a5ff" width="5.964" height="5.964"/>
	<rect x="62.468" y="88" opacity="0.7" fill="#0A0830" width="6" height="6"/>
	<rect x="62.721" y="52.886" fill="#00a5ff" width="5.964" height="5.964"/>
	<rect x="62.721" y="82.108" fill="#00a5ff" width="5.964" height="5.964"/>
	<rect x="62.721" y="70.181" fill="#00a5ff" width="5.964" height="5.964"/>
	<rect x="62.721" y="76.145" fill="#00a5ff" width="5.964" height="5.964"/>
	<rect x="62.721" y="58.85" fill="#00a5ff" width="5.964" height="5.367"/>
	<rect x="62.721" y="94.036" fill="#00a5ff" width="5.964" height="5.964"/>
	<rect x="62.721" y="46.922" fill="#00a5ff" width="5.964" height="5.964"/>
	<rect x="62.721" y="23.066" fill="#00a5ff" width="5.964" height="5.964"/>
	<rect x="62.721" y="40.958" fill="#00a5ff" width="5.964" height="5.964"/>
	<rect x="74.649" y="88.072" fill="#00a5ff" width="5.964" height="5.964"/>
	<rect x="74.649" y="82.108" fill="#00a5ff" width="5.964" height="5.964"/>
	<rect x="74.649" y="94.036" fill="#00a5ff" width="5.964" height="5.964"/>
	<rect x="74.649" y="58.85" fill="#00a5ff" width="5.964" height="5.367"/>
	<rect x="74.649" y="52.886" fill="#00a5ff" width="5.964" height="5.964"/>
	<rect x="74.468" y="47" opacity="0.7" fill="#0A0830" width="6" height="6"/>
	<rect x="74.649" y="70.181" fill="#00a5ff" width="5.964" height="5.964"/>
	<rect x="74.649" y="40.958" fill="#00a5ff" width="5.964" height="5.964"/>
	<rect x="74.649" y="23.066" fill="#00a5ff" width="5.964" height="5.964"/>
	<rect x="74.649" y="34.994" fill="#00a5ff" width="5.964" height="5.964"/>
	<rect x="51.39" y="70.181" fill="#00a5ff" width="5.367" height="5.964"/>
	<rect x="51.468" y="53" opacity="0.7" fill="#0A0830" width="5" height="6"/>
	<rect x="51.39" y="46.922" fill="#00a5ff" width="5.367" height="5.964"/>
	<rect x="51.39" y="58.85" fill="#00a5ff" width="5.367" height="5.367"/>
	<rect x="51.39" y="23.066" fill="#00a5ff" width="5.367" height="5.964"/>
	<rect x="51.468" y="41" opacity="0.7" fill="#0A0830" width="5" height="6"/>
	<rect x="51.39" y="34.994" fill="#00a5ff" width="5.367" height="5.964"/>
	<rect x="51.39" y="76.145" fill="#00a5ff" width="5.367" height="5.964"/>
	<rect x="51.39" y="94.036" fill="#00a5ff" width="5.367" height="5.964"/>
	<rect x="51.39" y="82.108" fill="#00a5ff" width="5.367" height="5.964"/>
	<rect x="51.468" y="88" opacity="0.7" fill="#0A0830" width="5" height="6"/>
	<rect x="56.757" y="34.994" fill="#00a5ff" width="5.964" height="5.964"/>
	<rect x="56.757" y="94.036" fill="#00a5ff" width="5.964" height="5.964"/>
	<rect x="56.757" y="46.922" fill="#00a5ff" width="5.964" height="5.964"/>
	<rect x="56.757" y="52.886" fill="#00a5ff" width="5.964" height="5.964"/>
	<rect x="56.757" y="58.85" fill="#00a5ff" width="5.964" height="5.367"/>
	<rect x="56.757" y="40.958" fill="#00a5ff" width="5.964" height="5.964"/>
	<rect x="56.757" y="23.066" fill="#00a5ff" width="5.964" height="5.964"/>
	<rect x="56.757" y="76.145" fill="#00a5ff" width="5.964" height="5.964"/>
	<rect x="56.757" y="70.181" fill="#00a5ff" width="5.964" height="5.964"/>
	<rect x="56.468" y="88" opacity="0.7" fill="#0A0830" width="6" height="6"/>
	<rect x="56.757" y="82.108" fill="#00a5ff" width="5.964" height="5.964"/>
	<rect x="92.54" y="23.066" fill="#00a5ff" width="5.964" height="5.964"/>
	<rect x="92.54" y="88.072" fill="#00a5ff" width="5.964" height="5.964"/>
	<rect x="92.54" y="94.036" fill="#00a5ff" width="5.964" height="5.964"/>
	<rect x="92.54" y="70.181" fill="#00a5ff" width="5.964" height="5.964"/>
	<rect x="98.504" y="29.03" fill="#00a5ff" width="5.964" height="5.964"/>
	<rect x="98.504" y="64.217" fill="#00a5ff" width="5.964" height="5.964"/>
	<rect x="98.504" y="58.85" fill="#00a5ff" width="5.964" height="5.367"/>
	<rect x="98.504" y="40.958" fill="#00a5ff" width="5.964" height="5.964"/>
	<rect x="98.504" y="46.922" fill="#00a5ff" width="5.964" height="5.964"/>
	<rect x="98.504" y="52.886" fill="#00a5ff" width="5.964" height="5.964"/>
	<rect x="98.504" y="34.994" fill="#00a5ff" width="5.964" height="5.964"/>
	<rect x="98.504" y="94.036" fill="#00a5ff" width="5.964" height="5.964"/>
	<rect x="80.468" y="41" opacity="0.7" fill="#0A0830" width="6" height="6"/>
	<rect x="80.613" y="34.994" fill="#00a5ff" width="5.964" height="5.964"/>
	<rect x="80.613" y="46.922" fill="#00a5ff" width="5.964" height="5.964"/>
	<rect x="80.613" y="23.066" fill="#00a5ff" width="5.964" height="5.964"/>
	<rect x="80.468" y="53" opacity="0.7" fill="#0A0830" width="6" height="6"/>
	<rect x="80.613" y="94.036" fill="#00a5ff" width="5.964" height="5.964"/>
	<rect x="80.613" y="58.85" fill="#00a5ff" width="5.964" height="5.367"/>
	<rect x="80.613" y="88.072" fill="#00a5ff" width="5.964" height="5.964"/>
	<rect x="80.613" y="70.181" fill="#00a5ff" width="5.964" height="5.964"/>
	<rect x="80.613" y="82.108" fill="#00a5ff" width="5.964" height="5.964"/>
	<rect x="86.577" y="34.994" fill="#00a5ff" width="5.964" height="5.964"/>
	<rect x="86.577" y="40.958" fill="#00a5ff" width="5.964" height="5.964"/>
	<rect x="86.577" y="46.922" fill="#00a5ff" width="5.964" height="5.964"/>
	<rect x="86.577" y="23.066" fill="#00a5ff" width="5.964" height="5.964"/>
	<rect x="86.577" y="52.886" fill="#00a5ff" width="5.964" height="5.964"/>
	<rect x="86.577" y="88.072" fill="#00a5ff" width="5.964" height="5.964"/>
	<rect x="86.577" y="94.036" fill="#00a5ff" width="5.964" height="5.964"/>
	<rect x="86.577" y="82.108" fill="#00a5ff" width="5.964" height="5.964"/>
	<rect x="86.577" y="70.181" fill="#00a5ff" width="5.964" height="5.964"/>
	<rect x="86.577" y="58.85" fill="#00a5ff" width="5.964" height="5.367"/>
	<rect x="36.48" y="3.982" fill="#00a5ff" width="5.964" height="5.964"/>
	<rect x="21.571" y="23.066" fill="#00a5ff" width="5.964" height="5.964"/>
	<rect x="3.679" y="1" fill="#00a5ff" width="5.964" height="5.964"/>
	<rect x="13.221" y="9.946" fill="#00a5ff" width="5.964" height="5.964"/>
	<rect x="0.697" y="20.085" fill="#00a5ff" width="5.964" height="5.964"/>
</g>
</svg>
