<?xml version="1.0" encoding="utf-8"?>
<!-- Generator: Adobe Illustrator 17.0.0, SVG Export Plug-In . SVG Version: 6.00 Build 0)  -->
<!DOCTYPE svg PUBLIC "-//W3C//DTD SVG 1.1//EN" "http://www.w3.org/Graphics/SVG/1.1/DTD/svg11.dtd">
<svg version="1.1" id="Capa_1" xmlns="http://www.w3.org/2000/svg" xmlns:xlink="http://www.w3.org/1999/xlink" x="0px" y="0px"
	 width="227.378px" height="134.569px" viewBox="0 0 227.378 134.569" enable-background="new 0 0 227.378 134.569"
	 xml:space="preserve">
<path fill="#FFFFFF" d="M184.65,111.652h-5.117v7.122h-3.558v3.56h-3.561v3.561h-7.121v3.558H145.49v-3.558h-7.119v-3.561h-3.561
	v-10.682h-3.562V98.969h3.562V88.29h3.561V72.493h-3.561V70.49h7.121v-3.562h10.679V63.37h7.122v-3.561h3.558v-3.559h3.56V52.69
	h3.561v-7.121h3.561V26.212h-3.561v-3.561h-7.12v-3.558h-15.796v3.558h-7.119v3.561h-7.121v3.561h-2.005v-5.564h3.562v-3.558h3.561
	v-5.118h-5.117v3.561h-3.561v3.558h-3.561v3.561h-3.558v7.121h-3.562v7.118h-3.559v7.121h-3.563v7.122h-3.56v3.558h-7.119v3.561
	h-7.121v3.561h-7.119v3.56H76.292v3.56H49.37v-3.56H38.689v-3.56H35.13v-7.122H31.57V42.008h3.561V34.89h3.559v-3.562h3.56v-3.56
	h7.121v-3.56h10.68v-3.558h23.363v3.558h10.679v3.56h7.121v3.56h12.235v-5.117h-10.678v-3.561h-7.122v-3.558H84.97v-3.561H58.492
	v3.561H47.814v3.558h-7.122v3.561h-3.561v3.561h-3.557v3.561h-3.561v7.118h-3.561v19.358h3.561v7.119h3.561v3.562h3.557v3.562
	h10.683v3.557h30.034v-3.557h10.683V70.49h7.118v-3.562h7.122V63.37h7.117v-3.561h2.004v5.564h-3.56v7.119h-3.558v7.12h-3.562v7.12
	h-3.561v3.561h-3.561v3.558h-3.56v3.56h-3.56v3.562h-7.12v3.561h-7.122v3.561H60.05v-3.561h-3.562v-3.561h-5.115v5.117h3.559v3.561
	h3.56v3.558h30.039v-3.558h7.118v-3.561h3.563v-3.562h3.56v-3.56h3.56V91.85h3.558V88.29h3.561V77.608h3.562V70.49h5.564v3.562
	h10.679v12.682h-3.561v10.679h-3.561v15.797h3.561v10.682h3.561v3.56h3.561v3.559h7.118v3.561h22.917v-3.561h7.121v-3.559h3.561
	v-3.56h3.559v-3.56h3.561V111.652z M124.131,66.928h5.562v2.005h-5.562V66.928z M122.575,61.812v3.561h-2.004V52.69h3.561V38.45
	h7.117v-3.56h3.562v-3.562h7.121v-3.56h7.118v-3.56h12.683v3.56h7.121v16.244h-3.561v7.121h-3.561v3.561h-3.557v3.558h-7.122v3.561
	h-10.679v3.561h-9.126v-3.561H122.575z M129.693,33.333h-2.004v-2.004h2.004V33.333z"/>
<g>
	<rect x="115.329" y="4.198" fill="#E7E6E6" width="1.783" height="1.783"/>
	<g>
		<rect x="115.329" y="5.983" fill="#BABBBD" width="1.783" height="1.783"/>
		<rect x="117.115" y="4.198" fill="#A5A7A9" width="1.783" height="1.783"/>
	</g>
	<g>
		<rect x="113.544" y="4.21" fill="#BABBBD" width="1.783" height="1.783"/>
		<rect x="115.329" y="2.424" fill="#A5A7A9" width="1.783" height="1.785"/>
	</g>
</g>
<g>
	<rect x="5.024" y="10.029" fill="#E7E6E6" width="1.783" height="1.784"/>
	<g>
		<rect x="5.024" y="11.814" fill="#BABBBD" width="1.783" height="1.784"/>
		<rect x="6.808" y="10.029" fill="#A5A7A9" width="1.783" height="1.784"/>
	</g>
	<g>
		<rect x="3.239" y="10.042" fill="#BABBBD" width="1.783" height="1.783"/>
		<rect x="5.024" y="8.256" fill="#A5A7A9" width="1.783" height="1.783"/>
	</g>
</g>
<g>
	<rect x="188.73" y="77.581" fill="#E7E6E6" width="1.783" height="1.783"/>
	<g>
		<rect x="188.73" y="79.366" fill="#BABBBD" width="1.783" height="1.783"/>
		<rect x="190.515" y="77.581" fill="#A5A7A9" width="1.783" height="1.783"/>
	</g>
	<g>
		<rect x="186.945" y="77.592" fill="#BABBBD" width="1.783" height="1.783"/>
		<rect x="188.73" y="75.807" fill="#A5A7A9" width="1.783" height="1.783"/>
	</g>
</g>
<g>
	<rect x="205.779" y="45.837" fill="#E7E6E6" width="1.783" height="1.783"/>
	<g>
		<rect x="203.994" y="45.848" fill="#BABBBD" width="1.783" height="1.784"/>
		<rect x="205.779" y="44.064" fill="#A5A7A9" width="1.783" height="1.782"/>
		<rect x="205.77" y="42.282" fill="#BABBBD" width="1.783" height="1.782"/>
		<rect x="202.226" y="45.852" fill="#CFD0D1" width="1.783" height="1.782"/>
	</g>
	<g>
		<rect x="207.56" y="45.848" fill="#BABBBD" width="1.783" height="1.784"/>
		<rect x="205.775" y="47.626" fill="#A5A7A9" width="1.783" height="1.783"/>
		<rect x="205.785" y="49.408" fill="#BABBBD" width="1.783" height="1.783"/>
		<rect x="209.327" y="45.846" fill="#CFD0D1" width="1.784" height="1.783"/>
	</g>
</g>
<g>
	<rect x="28.746" y="100.817" fill="#E7E6E6" width="1.783" height="1.784"/>
	<g>
		<rect x="26.962" y="100.829" fill="#BABBBD" width="1.783" height="1.783"/>
		<rect x="28.746" y="99.045" fill="#A5A7A9" width="1.783" height="1.783"/>
		<rect x="28.739" y="97.262" fill="#BABBBD" width="1.782" height="1.783"/>
		<rect x="25.194" y="100.833" fill="#CFD0D1" width="1.783" height="1.783"/>
	</g>
	<g>
		<rect x="30.529" y="100.831" fill="#BABBBD" width="1.783" height="1.781"/>
		<rect x="28.744" y="102.606" fill="#A5A7A9" width="1.783" height="1.783"/>
		<rect x="28.752" y="104.387" fill="#BABBBD" width="1.783" height="1.785"/>
		<rect x="32.296" y="100.827" fill="#CFD0D1" width="1.783" height="1.783"/>
	</g>
</g>
<rect x="65.39" y="5.032" fill="#FFFFFF" width="1.961" height="1.963"/>
<rect x="192.643" y="5.03" fill="#FFFFFF" width="1.783" height="1.784"/>
<rect x="225.595" y="92.352" fill="#FFFFFF" width="1.783" height="1.783"/>
</svg>
