<?xml version="1.0" encoding="utf-8"?>
<!-- Generator: Adobe Illustrator 17.0.0, SVG Export Plug-In . SVG Version: 6.00 Build 0)  -->
<!DOCTYPE svg PUBLIC "-//W3C//DTD SVG 1.1//EN" "http://www.w3.org/Graphics/SVG/1.1/DTD/svg11.dtd">
<svg version="1.1" id="Capa_1" xmlns="http://www.w3.org/2000/svg" xmlns:xlink="http://www.w3.org/1999/xlink" x="0px" y="0px"
	 width="165.518px" height="88.813px" viewBox="0 0 165.518 88.813" enable-background="new 0 0 165.518 88.813"
	 xml:space="preserve">
<polygon opacity="0.7" fill="#FFFFFF" points="94.643,11.814 88.664,11.814 88.664,17.793 82.833,17.793 76.854,17.793 
	76.854,23.625 70.874,23.625 65.042,23.625 65.042,17.793 59.063,17.793 59.063,23.625 53.229,23.625 47.25,23.625 47.25,17.793 
	41.416,17.793 41.416,23.625 41.416,29.604 41.416,35.587 47.25,35.587 47.25,29.604 53.229,29.604 59.063,29.604 65.042,29.604 
	70.874,29.604 76.854,29.604 76.854,35.587 82.833,35.587 88.664,35.587 88.664,41.416 94.643,41.416 100.479,41.416 
	100.479,35.587 100.479,29.604 100.479,23.625 100.479,17.793 100.479,11.814 "/>
<g opacity="0.7">
	<path fill="#FFFFFF" d="M136.061,47.396h-5.979h-5.979h-5.833h-5.979h-5.834h-5.979h-5.836h-5.979h-5.831h-5.979h-5.979h-5.832
		h-5.979h-5.834H47.25h-5.834h-5.979h-5.832h-5.979h-5.834h-5.978v5.836v5.979v5.832h-5.98V59.21v-5.979v-5.836v-5.979v-5.829h5.98
		v5.829h5.978h5.834h5.979h5.832v-5.829v-5.982v-5.979v-5.832h-5.832h-5.979h-5.834h-5.978v5.832v5.979h-5.98H0v5.982v5.829v5.979
		v5.836v5.979v5.832v5.981h5.834h5.98v5.83v5.982h5.978h5.834v-5.982v-5.83v-5.981h5.979v5.981v5.83h5.832v-5.83v-5.981h5.979v5.981
		v5.83h5.834v-5.83v-5.981h5.979v5.981v5.83h5.834v-5.83v-5.981h5.979h5.832v5.981v5.83h5.979v-5.83v-5.981h5.979v5.981v5.83h5.831
		v-5.83v-5.981h5.979h5.836v5.981v5.83h5.979v-5.83v-5.981h5.834v5.981v5.83h5.979v-5.83v-5.981h5.833v5.981v5.83h5.979v-5.83
		v-5.981h5.979v5.981v5.83v5.982h5.832v-5.982v-5.83v-5.981V59.21v-5.979v-5.836H136.061z M17.791,23.625h5.834v5.979h-5.834V23.625
		z M29.604,59.21v-5.979h5.832v5.979H29.604z M41.416,59.21v-5.979h5.834v5.979H41.416z M53.229,59.21v-5.979h5.834v5.979H53.229z
		 M65.042,59.21v-5.979h5.832v5.979H65.042z M136.061,59.21h-5.979h-5.979h-5.833h-5.979v-5.979h5.979h5.833h5.979h5.979V59.21z"/>
	<polygon fill="#FFFFFF" points="124.104,82.836 118.271,82.836 112.291,82.836 106.457,82.836 100.479,82.836 94.643,82.836 
		88.664,82.836 82.833,82.836 76.854,82.836 70.874,82.836 65.042,82.836 59.063,82.836 53.229,82.836 47.25,82.836 41.416,82.836 
		35.437,82.836 29.604,82.836 23.625,82.836 23.625,88.813 29.604,88.813 35.437,88.813 41.416,88.813 47.25,88.813 53.229,88.813 
		59.063,88.813 65.042,88.813 70.874,88.813 76.854,88.813 82.833,88.813 88.664,88.813 94.643,88.813 100.479,88.813 
		106.457,88.813 112.291,88.813 118.271,88.813 124.104,88.813 130.082,88.813 136.061,88.813 136.061,82.836 130.082,82.836 	"/>
</g>
<g opacity="0.7">
	<polygon fill="#FFFFFF" points="130.082,17.793 130.082,11.814 130.082,5.979 124.104,5.979 124.104,0 118.271,0 118.271,5.979 
		112.291,5.979 112.291,11.814 112.291,17.793 112.291,23.625 118.271,23.625 118.271,29.604 118.271,35.587 118.271,41.416 
		124.104,41.416 124.104,35.587 124.104,29.604 124.104,23.625 130.082,23.625 	"/>
	<polygon fill="#FFFFFF" points="159.686,29.604 159.686,23.625 153.707,23.625 147.873,23.625 141.893,23.625 141.893,29.604 
		136.061,29.604 130.082,29.604 130.082,35.587 136.061,35.587 141.893,35.587 141.893,41.416 147.873,41.416 153.707,41.416 
		159.686,41.416 159.686,35.587 165.518,35.587 165.518,29.604 	"/>
</g>
<polygon opacity="0.7" fill="#FFFFFF" points="76.854,0 70.874,0 65.042,0 65.042,5.979 59.063,5.979 59.063,0 53.229,0 
	53.229,5.979 47.25,5.979 47.25,0 41.416,0 41.416,5.979 35.437,5.979 35.437,0 29.604,0 29.604,5.979 23.625,5.979 23.625,0 
	17.791,0 11.813,0 5.834,0 5.834,5.979 11.813,5.979 11.813,11.814 17.791,11.814 23.625,11.814 29.604,11.814 35.437,11.814 
	41.416,11.814 47.25,11.814 53.229,11.814 59.063,11.814 65.042,11.814 70.874,11.814 76.854,11.814 82.833,11.814 82.833,5.979 
	82.833,0 "/>
</svg>
