<?xml version="1.0" encoding="utf-8"?> <!-- Generator: Adobe Illustrator 17.0.0, SVG Export Plug-In . SVG Version: 6.00 Build 0)  --> <!DOCTYPE svg PUBLIC "-//W3C//DTD SVG 1.1//EN" "http://www.w3.org/Graphics/SVG/1.1/DTD/svg11.dtd"> <svg version="1.1" xmlns="http://www.w3.org/2000/svg" xmlns:xlink="http://www.w3.org/1999/xlink" x="0px" y="0px" width="22px" height="18px" viewBox="0 0 22 18" enable-background="new 0 0 22 18" xml:space="preserve"> <rect x="13.56" y="6" fill="#FFFFFF" width="3" height="2"/> <rect x="19.56" fill="#FFFFFF" width="2" height="3"/> <rect x="16.56" y="3" fill="#FFFFFF" width="3" height="3"/> <path fill="#FFFFFF" d="M10.56,3V2V0h-1v2v1h-3v3h-3h-1h-2v2H0v2h0.56v3h2h1h3v2h3v3h1v-3h1v-2h-1v-3H11V8h0.56V6h-1V3z M10,10 H9.56V8H10V10z"/> <rect x="16.56" y="13" fill="#FFFFFF" width="3" height="2"/> <rect x="19.56" y="15" fill="#FFFFFF" width="2" height="3"/> <rect x="20" y="8" fill="#FFFFFF" width="2" height="2"/> <rect x="13.56" y="10" fill="#FFFFFF" width="3" height="3"/> </svg>